<svg xmlns="http://www.w3.org/2000/svg" viewBox="0 0 4000 4000" width="200" height="200"><style>tspan { white-space:pre }.shp0 { fill: #000000 } </style><path fill-rule="evenodd" class="shp0" d="M3143.77 789.74C3140.28 812.07 3138.2 834.72 3133.07 856.67C3089.93 1041.22 2989.74 1184.82 2825.58 1281.95C2814.95 1288.24 2803.19 1292.59 2792.24 1298.36C2778.44 1305.64 2764.56 1305.08 2751.95 1297.18C2731.7 1284.49 2711.01 1271.98 2692.85 1256.62C2665.76 1233.69 2640.05 1209.02 2614.95 1183.88C2583.21 1152.11 2581.87 1117.2 2611.58 1083.62C2624.5 1069.03 2640.56 1057.11 2655.77 1044.68C2675.53 1028.53 2695.86 1013.07 2718.06 995.66C2697.5 987.15 2679.53 979.45 2661.36 972.26C2518.81 915.78 2371.82 875.73 2219.9 854.47C2096.97 837.27 1973.5 833.36 1849.55 840.27C1615.98 853.31 1391.26 906.54 1172.61 987.79C1161.5 991.92 1150.82 997.23 1138.29 1002.72C1142.45 1006.52 1144.94 1009.13 1147.75 1011.32C1166.65 1026.07 1186.23 1040.04 1204.37 1055.66C1218.21 1067.58 1232 1080.3 1242.74 1094.92C1261.02 1119.78 1260.95 1148.93 1240.75 1172C1200.34 1218.18 1155.92 1260.3 1103.28 1292.79C1084.41 1304.44 1066.12 1305.24 1045.31 1295.09C972.06 1259.38 910.44 1209.22 858.01 1147.51C784.35 1060.82 733.46 962.64 711.55 850.38C707.64 830.32 705.24 809.96 702.14 789.74L702.14 730.63C702.99 726.48 704.23 722.37 704.64 718.18C711.02 653.47 731.41 593.66 770.27 541.37C784.19 522.64 802.82 507.41 821.56 488.27C841.37 640.53 904.67 767.42 1004.47 877.67C1023.64 869.21 1042.31 860.82 1061.1 852.7C1284.74 756.01 1517.7 695.74 1760.55 674.76C1871.2 665.2 1982 664.25 2092.95 671.05C2228.84 679.37 2362.37 701.35 2493.65 737.1C2611.93 769.3 2726.33 812.14 2837.23 864.36C2843.11 867.13 2847.93 871.18 2854.75 863.19C2932.84 771.75 2988.49 669.03 3013.49 550.72C3017.6 531.29 3020.97 511.71 3025.36 488.61C3044.05 508.17 3062.48 524.37 3077.15 543.46C3105.92 580.9 3122.92 624.31 3133.36 670.12C3137.9 690.04 3140.37 710.44 3143.77 730.63L3143.77 789.74ZM805.94 1481.19C809.46 1480.87 812.38 1480.37 815.3 1480.37C912.51 1480.56 1009.74 1479.88 1106.93 1481.43C1152.86 1482.16 1198.17 1489.98 1239.92 1511.07C1308.51 1545.72 1345.61 1602.43 1354.51 1677.97C1359.2 1717.75 1357.96 1757.43 1347.46 1796.41C1332.99 1850.2 1299.73 1889.21 1252.29 1917C1249.09 1918.88 1245.82 1920.65 1240.66 1923.55C1249.86 1927.05 1257.28 1929.53 1264.43 1932.64C1314.96 1954.64 1350.17 1992 1369.61 2042.97C1397.68 2116.55 1396.19 2191.14 1366.15 2263.36C1333.38 2342.14 1269.56 2384.43 1187.81 2400.56C1161.56 2405.74 1134.38 2408.07 1107.58 2408.33C1012.51 2409.23 917.43 2408.68 822.35 2408.68L805.94 2408.68L805.94 1481.19ZM1000.47 2234.63C1032.63 2234.63 1063.43 2236.18 1094.01 2234.28C1142.97 2231.25 1178.84 2198.12 1186.79 2150.08C1189 2136.74 1188.68 2122.78 1187.98 2109.18C1185.67 2064.4 1158.17 2027.48 1114.82 2015.87C1093.36 2010.12 1070.19 2010.38 1047.72 2008.96C1032.14 2007.98 1016.44 2008.77 1000.47 2008.77L1000.47 2234.63ZM1000.97 1654.93L1000.97 1855.56C1023.62 1855.56 1045.35 1855.63 1067.09 1855.55C1132.62 1855.3 1169.04 1820.65 1172.11 1755.71C1174.78 1699.16 1146.48 1662.51 1090.27 1655.56C1061.31 1651.97 1031.55 1654.93 1000.97 1654.93ZM2077.95 1481.33L2077.95 1497.46C2077.95 1689.33 2078.38 1881.2 2077.74 2073.06C2077.48 2150.48 2065.37 2225.79 2025.92 2294.13C1980.43 2372.92 1910.98 2416.51 1821.76 2429.39C1766.12 2437.42 1710.51 2436.43 1656.44 2420.01C1558.96 2390.4 1499.98 2322.63 1471.11 2226.94C1455.92 2176.64 1450.07 2124.77 1450.02 2072.33C1449.86 1879.18 1449.96 1686.03 1449.96 1492.87L1449.96 1481.53L1660.9 1481.53L1660.9 1497.82C1660.9 1683.69 1660.27 1869.57 1661.47 2055.44C1661.69 2089.32 1666.92 2123.7 1674.31 2156.85C1681.3 2188.23 1699.17 2214.56 1731.47 2226.34C1779.68 2243.94 1827.4 2224.74 1847.29 2176.7C1857.41 2152.26 1861.29 2124.97 1865.87 2098.61C1868.71 2082.31 1868.1 2065.33 1868.12 2048.65C1868.25 1865.78 1868.2 1682.9 1868.2 1500.03L1868.2 1481.33L2077.95 1481.33ZM2387.53 1481.06L2387.53 2213.77L2633.97 2213.77L2633.97 2407.9L2176.09 2407.9L2176.09 1481.06L2387.53 1481.06ZM2889.04 2214.32L3136.9 2214.32L3136.9 2408.02L2678.76 2408.02L2678.76 1481.31L2889.04 1481.31L2889.04 2214.32ZM1936.64 2821.55C1964.82 2747.44 1992.06 2676.87 2018.26 2605.91C2023.18 2592.6 2029.32 2587.92 2043.86 2588.2C2097.34 2589.24 2150.85 2588.61 2205.72 2588.61C2116.55 2832.33 2027.82 3074.88 1937.85 3320.76C1846.76 3074.75 1756.93 2832.18 1666.98 2589.26C1667.81 2589.2 1671.38 2588.66 1674.96 2588.65C1729.34 2588.6 1783.73 2588.86 1838.12 2588.37C1847.48 2588.29 1851.2 2591.54 1854.3 2600.02C1879.37 2668.69 1904.97 2737.16 1930.42 2805.69C1932.03 2810 1933.78 2814.26 1936.64 2821.55ZM1497.61 1280.65C1515.68 1289.02 1532.18 1297 1548.96 1304.32C1559.91 1309.1 1562.35 1315.79 1557.42 1326.7C1548.26 1346.92 1539.74 1367.44 1531.22 1387.94C1527.1 1397.83 1521.13 1400.69 1511.09 1395.79C1494.28 1387.58 1477.19 1379.96 1459.3 1371.67C1454.28 1382.8 1449.72 1392.81 1445.25 1402.87C1441.58 1411.14 1436.17 1412.98 1427.72 1409.18C1385.72 1390.24 1364.57 1333.74 1382.39 1287.34C1400.4 1240.45 1449.93 1216.12 1495.76 1231.63C1512.36 1237.25 1514.15 1241.11 1507.52 1256.84C1504.39 1264.26 1501.33 1271.71 1497.61 1280.65Z" /><path fill-rule="evenodd" class="shp0" d="M2176.88 1181.48L2136.59 1181.48C2134.73 1189.14 2132.39 1196.82 2131.12 1204.66C2129.97 1211.72 2127.31 1215.1 2119.51 1214.58C2109.31 1213.9 2099.02 1214.41 2087.6 1214.41C2102.41 1153.35 2117 1093.24 2131.84 1032.12C2147.1 1032.12 2162.04 1031.82 2176.95 1032.38C2179.7 1032.49 2184.14 1035.63 2184.75 1038.13C2198.84 1095.4 2212.5 1152.78 2226.2 1210.15C2226.38 1210.92 2226.01 1211.82 2225.65 1214.39C2214.13 1214.39 2202.31 1214.89 2190.58 1214.03C2187.82 1213.83 2184.14 1209.5 2183.07 1206.32C2180.36 1198.36 2178.9 1189.96 2176.88 1181.48ZM2171.68 1147.68C2167.06 1123.58 2162.65 1100.62 2158.25 1077.65C2157.22 1077.76 2156.19 1077.87 2155.16 1077.98C2150.58 1100.86 2146 1123.75 2141.21 1147.68L2171.68 1147.68ZM1700.79 1147.59L1700.79 1213.8L1661.8 1213.8L1661.8 1033.9C1685.38 1033.9 1709.35 1031.61 1732.68 1034.53C1757.35 1037.62 1769.67 1055.03 1772.79 1082.35C1777.16 1120.59 1753.56 1147.43 1715.41 1147.59C1711.23 1147.61 1707.04 1147.59 1700.79 1147.59ZM1702.21 1067.13L1702.21 1113.49C1713.77 1115.25 1725.6 1115.86 1729.81 1104.7C1733.05 1096.11 1733.4 1084.34 1730.12 1075.89C1725.87 1064.93 1713.72 1065.99 1702.21 1067.13ZM1981.17 1032.79L2078.09 1032.79C2079.55 1049.53 2080.03 1064.86 2071.77 1080.32C2055.31 1111.11 2040.53 1142.8 2024.06 1176.15L2077.74 1176.15L2077.74 1213.49L1976.98 1213.49C1975.76 1196.4 1975.02 1180.6 1983.58 1164.71C2000.16 1133.94 2014.92 1102.19 2031.41 1068.85L1981.17 1068.85L1981.17 1032.79ZM1905.91 1176.98L1960.44 1176.98L1960.44 1213.77L1859.33 1213.77C1858.76 1197.56 1856.67 1182.15 1865.1 1166.62C1880.17 1138.83 1893.53 1110.11 1907.55 1081.75C1909.39 1078.03 1910.89 1074.14 1913.28 1068.64L1864.15 1068.64L1864.15 1032.87L1960.83 1032.87C1960.76 1047.25 1963.52 1061.59 1956.18 1075.89C1939.46 1108.5 1923.49 1141.5 1905.91 1176.98ZM2413.57 1222.65C2444.51 1222.55 2467.47 1245.04 2467.56 1275.52C2467.64 1305.89 2444.49 1329.76 2414.69 1330.04C2385.03 1330.31 2360.45 1306.23 2360.17 1276.63C2359.88 1246.72 2383.6 1222.74 2413.57 1222.65ZM2434.7 1276.4C2434.86 1264.98 2426.42 1255.99 2415.09 1255.5C2403.4 1255 2393.51 1264.18 2393.32 1275.74C2393.12 1287.06 2403.12 1297.07 2414.45 1296.89C2425.5 1296.71 2434.53 1287.57 2434.7 1276.4ZM1795.71 1032.5L1834.59 1032.5L1834.59 1213.59L1795.71 1213.59L1795.71 1032.5Z" /></svg>