<svg xmlns="http://www.w3.org/2000/svg" viewBox="0 0 3732 4000" width="700" height="750">
	<style>
		tspan { white-space:pre }
		.shp0 { fill: #000000 } 
	</style>
	<path id="Layer" fill-rule="evenodd" class="shp0" d="M3077.77 789.74C3074.28 812.07 3072.2 834.72 3067.07 856.67C3023.93 1041.22 2923.74 1184.82 2759.58 1281.95C2748.95 1288.24 2737.19 1292.59 2726.24 1298.36C2712.44 1305.64 2698.56 1305.08 2685.95 1297.18C2665.7 1284.49 2645.01 1271.98 2626.85 1256.62C2599.76 1233.69 2574.05 1209.02 2548.95 1183.88C2517.21 1152.11 2515.87 1117.2 2545.58 1083.62C2558.5 1069.03 2574.56 1057.11 2589.77 1044.68C2609.53 1028.53 2629.86 1013.07 2652.06 995.66C2631.5 987.15 2613.53 979.45 2595.36 972.26C2452.81 915.78 2305.82 875.73 2153.9 854.47C2030.97 837.27 1907.5 833.36 1783.55 840.27C1549.98 853.31 1325.26 906.54 1106.61 987.79C1095.5 991.92 1084.82 997.23 1072.29 1002.72C1076.45 1006.52 1078.94 1009.13 1081.75 1011.32C1100.65 1026.07 1120.23 1040.04 1138.37 1055.66C1152.21 1067.58 1166 1080.3 1176.74 1094.92C1195.02 1119.78 1194.95 1148.93 1174.75 1172C1134.34 1218.18 1089.92 1260.3 1037.28 1292.79C1018.41 1304.44 1000.12 1305.24 979.31 1295.09C906.06 1259.38 844.44 1209.22 792.01 1147.51C718.35 1060.82 667.46 962.64 645.55 850.38C641.64 830.32 639.24 809.96 636.14 789.74L636.14 730.63C636.99 726.48 638.23 722.37 638.64 718.18C645.02 653.47 665.41 593.66 704.27 541.37C718.19 522.64 736.82 507.41 755.56 488.27C775.37 640.53 838.67 767.42 938.47 877.67C957.64 869.21 976.31 860.82 995.1 852.7C1218.74 756.01 1451.7 695.74 1694.55 674.76C1805.2 665.2 1916 664.25 2026.95 671.05C2162.84 679.37 2296.37 701.35 2427.65 737.1C2545.93 769.3 2660.33 812.14 2771.23 864.36C2777.11 867.13 2781.93 871.18 2788.75 863.19C2866.84 771.75 2922.49 669.03 2947.49 550.72C2951.6 531.29 2954.97 511.71 2959.36 488.61C2978.05 508.17 2996.48 524.37 3011.15 543.46C3039.92 580.9 3056.92 624.31 3067.36 670.12C3071.9 690.04 3074.37 710.44 3077.77 730.63L3077.77 789.74ZM739.94 1481.19C743.46 1480.87 746.38 1480.37 749.3 1480.37C846.51 1480.56 943.74 1479.88 1040.93 1481.43C1086.86 1482.16 1132.17 1489.98 1173.92 1511.07C1242.51 1545.72 1279.61 1602.43 1288.51 1677.97C1293.2 1717.75 1291.96 1757.43 1281.46 1796.41C1266.99 1850.2 1233.73 1889.21 1186.29 1917C1183.09 1918.88 1179.82 1920.65 1174.66 1923.55C1183.86 1927.05 1191.28 1929.53 1198.43 1932.64C1248.96 1954.64 1284.17 1992 1303.61 2042.97C1331.68 2116.55 1330.19 2191.14 1300.15 2263.36C1267.38 2342.14 1203.56 2384.43 1121.81 2400.56C1095.56 2405.74 1068.38 2408.07 1041.58 2408.33C946.51 2409.23 851.43 2408.68 756.35 2408.68L739.94 2408.68L739.94 1481.19ZM934.47 2234.63C966.63 2234.63 997.43 2236.18 1028.01 2234.28C1076.97 2231.25 1112.84 2198.12 1120.79 2150.08C1123 2136.74 1122.68 2122.78 1121.98 2109.18C1119.67 2064.4 1092.17 2027.48 1048.82 2015.87C1027.36 2010.12 1004.19 2010.38 981.72 2008.96C966.14 2007.98 950.44 2008.77 934.47 2008.77L934.47 2234.63ZM934.97 1654.93L934.97 1855.56C957.62 1855.56 979.35 1855.63 1001.09 1855.55C1066.62 1855.3 1103.04 1820.65 1106.11 1755.71C1108.78 1699.16 1080.48 1662.51 1024.27 1655.56C995.31 1651.97 965.55 1654.93 934.97 1654.93ZM2011.95 1481.33L2011.95 1497.46C2011.95 1689.33 2012.38 1881.2 2011.74 2073.06C2011.48 2150.48 1999.37 2225.79 1959.92 2294.13C1914.43 2372.92 1844.98 2416.51 1755.76 2429.39C1700.12 2437.42 1644.51 2436.43 1590.44 2420.01C1492.96 2390.4 1433.98 2322.63 1405.11 2226.94C1389.92 2176.64 1384.07 2124.77 1384.02 2072.33C1383.86 1879.18 1383.96 1686.03 1383.96 1492.87L1383.96 1481.53L1594.9 1481.53L1594.9 1497.82C1594.9 1683.69 1594.27 1869.57 1595.47 2055.44C1595.69 2089.32 1600.92 2123.7 1608.31 2156.85C1615.3 2188.23 1633.17 2214.56 1665.47 2226.34C1713.68 2243.94 1761.4 2224.74 1781.29 2176.7C1791.41 2152.26 1795.29 2124.97 1799.87 2098.61C1802.71 2082.31 1802.1 2065.33 1802.12 2048.65C1802.25 1865.78 1802.2 1682.9 1802.2 1500.03L1802.2 1481.33L2011.95 1481.33ZM2321.53 1481.06L2321.53 2213.77L2567.97 2213.77L2567.97 2407.9L2110.09 2407.9L2110.09 1481.06L2321.53 1481.06ZM2823.04 2214.32L3070.9 2214.32L3070.9 2408.02L2612.76 2408.02L2612.76 1481.31L2823.04 1481.31L2823.04 2214.32ZM1870.64 2821.55C1898.82 2747.44 1926.06 2676.87 1952.26 2605.91C1957.18 2592.6 1963.32 2587.92 1977.86 2588.2C2031.34 2589.24 2084.85 2588.61 2139.72 2588.61C2050.55 2832.33 1961.82 3074.88 1871.85 3320.76C1780.76 3074.75 1690.93 2832.18 1600.98 2589.26C1601.81 2589.2 1605.38 2588.66 1608.96 2588.65C1663.34 2588.6 1717.73 2588.86 1772.12 2588.37C1781.48 2588.29 1785.2 2591.54 1788.3 2600.02C1813.37 2668.69 1838.97 2737.16 1864.42 2805.69C1866.03 2810 1867.78 2814.26 1870.64 2821.55ZM1431.61 1280.65C1449.68 1289.02 1466.18 1297 1482.96 1304.32C1493.91 1309.1 1496.35 1315.79 1491.42 1326.7C1482.26 1346.92 1473.74 1367.44 1465.22 1387.94C1461.1 1397.83 1455.13 1400.69 1445.09 1395.79C1428.28 1387.58 1411.19 1379.96 1393.3 1371.67C1388.28 1382.8 1383.72 1392.81 1379.25 1402.87C1375.58 1411.14 1370.17 1412.98 1361.72 1409.18C1319.72 1390.24 1298.57 1333.74 1316.39 1287.34C1334.4 1240.45 1383.93 1216.12 1429.76 1231.63C1446.36 1237.25 1448.15 1241.11 1441.52 1256.84C1438.39 1264.26 1435.33 1271.71 1431.61 1280.65Z" />
	<path id="Layer" fill-rule="evenodd" class="shp0" d="M2110.88 1181.48L2070.59 1181.48C2068.73 1189.14 2066.39 1196.82 2065.12 1204.66C2063.97 1211.72 2061.31 1215.1 2053.51 1214.58C2043.31 1213.9 2033.02 1214.41 2021.6 1214.41C2036.41 1153.35 2051 1093.24 2065.84 1032.12C2081.1 1032.12 2096.04 1031.82 2110.95 1032.38C2113.7 1032.49 2118.14 1035.63 2118.75 1038.13C2132.84 1095.4 2146.5 1152.78 2160.2 1210.15C2160.38 1210.92 2160.01 1211.82 2159.65 1214.39C2148.13 1214.39 2136.31 1214.89 2124.58 1214.03C2121.82 1213.83 2118.14 1209.5 2117.07 1206.32C2114.36 1198.36 2112.9 1189.96 2110.88 1181.48ZM2105.68 1147.68C2101.06 1123.58 2096.65 1100.62 2092.25 1077.65C2091.22 1077.76 2090.19 1077.87 2089.16 1077.98C2084.58 1100.86 2080 1123.75 2075.21 1147.68L2105.68 1147.68ZM1634.79 1147.59L1634.79 1213.8L1595.8 1213.8L1595.8 1033.9C1619.38 1033.9 1643.35 1031.61 1666.68 1034.53C1691.35 1037.62 1703.67 1055.03 1706.79 1082.35C1711.16 1120.59 1687.56 1147.43 1649.41 1147.59C1645.23 1147.61 1641.04 1147.59 1634.79 1147.59ZM1636.21 1067.13L1636.21 1113.49C1647.77 1115.25 1659.6 1115.86 1663.81 1104.7C1667.05 1096.11 1667.4 1084.34 1664.12 1075.89C1659.87 1064.93 1647.72 1065.99 1636.21 1067.13ZM1915.17 1032.79L2012.09 1032.79C2013.55 1049.53 2014.03 1064.86 2005.77 1080.32C1989.31 1111.11 1974.53 1142.8 1958.06 1176.15L2011.74 1176.15L2011.74 1213.49L1910.98 1213.49C1909.76 1196.4 1909.02 1180.6 1917.58 1164.71C1934.16 1133.94 1948.92 1102.19 1965.41 1068.85L1915.17 1068.85L1915.17 1032.79ZM1839.91 1176.98L1894.44 1176.98L1894.44 1213.77L1793.33 1213.77C1792.76 1197.56 1790.67 1182.15 1799.1 1166.62C1814.17 1138.83 1827.53 1110.11 1841.55 1081.75C1843.39 1078.03 1844.89 1074.14 1847.28 1068.64L1798.15 1068.64L1798.15 1032.87L1894.83 1032.87C1894.76 1047.25 1897.52 1061.59 1890.18 1075.89C1873.46 1108.5 1857.49 1141.5 1839.91 1176.98ZM2347.57 1222.65C2378.51 1222.55 2401.47 1245.04 2401.56 1275.52C2401.64 1305.89 2378.49 1329.76 2348.69 1330.04C2319.03 1330.31 2294.45 1306.23 2294.17 1276.63C2293.88 1246.72 2317.6 1222.74 2347.57 1222.65ZM2368.7 1276.4C2368.86 1264.98 2360.42 1255.99 2349.09 1255.5C2337.4 1255 2327.51 1264.18 2327.32 1275.74C2327.12 1287.06 2337.12 1297.07 2348.45 1296.89C2359.5 1296.71 2368.53 1287.57 2368.7 1276.4ZM1729.71 1032.5L1768.59 1032.5L1768.59 1213.59L1729.71 1213.59L1729.71 1032.5Z" />
</svg>